<svg xmlns="http://www.w3.org/2000/svg" width="980" height="420" viewBox="0 0 980 420">
<style>text{font:12px system-ui;fill:#26303b}.title{font-size:16px;font-weight:600}.grid{stroke:#d8dde5;stroke-width:1}</style>
<text x="78" y="26" class="title">Thread scaling at n=1000000 — default (kernel speedup vs 1 thread)</text>
<line x1="78" y1="358.0" x2="954" y2="358.0" class="grid"/>
<text x="70" y="362.0" text-anchor="end">0.000</text>
<line x1="78" y1="281.5" x2="954" y2="281.5" class="grid"/>
<text x="70" y="285.5" text-anchor="end">3.3</text>
<line x1="78" y1="205.0" x2="954" y2="205.0" class="grid"/>
<text x="70" y="209.0" text-anchor="end">6.5</text>
<line x1="78" y1="128.5" x2="954" y2="128.5" class="grid"/>
<text x="70" y="132.5" text-anchor="end">9.8</text>
<line x1="78" y1="52.0" x2="954" y2="52.0" class="grid"/>
<text x="70" y="56.0" text-anchor="end">13.1</text>
<text x="78.0" y="386" text-anchor="middle">1</text>
<text x="224.0" y="386" text-anchor="middle">2</text>
<text x="370.0" y="386" text-anchor="middle">4</text>
<text x="516.0" y="386" text-anchor="middle">6</text>
<text x="662.0" y="386" text-anchor="middle">8</text>
<text x="808.0" y="386" text-anchor="middle">10</text>
<text x="954.0" y="386" text-anchor="middle">12</text>
<text x="16" y="205.0" transform="rotate(-90 16 205.0)" text-anchor="middle">speedup</text>
<polyline points="78.0,334.6 224.0,330.4 370.0,325.8 516.0,323.5 662.0,323.2 808.0,323.1 954.0,322.6" fill="none" stroke="#3478d4" stroke-width="3"/>
<circle cx="78.0" cy="334.6" r="4" fill="#3478d4"/>
<circle cx="224.0" cy="330.4" r="4" fill="#3478d4"/>
<circle cx="370.0" cy="325.8" r="4" fill="#3478d4"/>
<circle cx="516.0" cy="323.5" r="4" fill="#3478d4"/>
<circle cx="662.0" cy="323.2" r="4" fill="#3478d4"/>
<circle cx="808.0" cy="323.1" r="4" fill="#3478d4"/>
<circle cx="954.0" cy="322.6" r="4" fill="#3478d4"/>
<text x="78" y="412" fill="#3478d4">cc</text>
<polyline points="78.0,334.6 224.0,331.6 370.0,333.1 516.0,327.7 662.0,330.0 808.0,329.4 954.0,329.1" fill="none" stroke="#d4553a" stroke-width="3"/>
<circle cx="78.0" cy="334.6" r="4" fill="#d4553a"/>
<circle cx="224.0" cy="331.6" r="4" fill="#d4553a"/>
<circle cx="370.0" cy="333.1" r="4" fill="#d4553a"/>
<circle cx="516.0" cy="327.7" r="4" fill="#d4553a"/>
<circle cx="662.0" cy="330.0" r="4" fill="#d4553a"/>
<circle cx="808.0" cy="329.4" r="4" fill="#d4553a"/>
<circle cx="954.0" cy="329.1" r="4" fill="#d4553a"/>
<text x="228" y="412" fill="#d4553a">kcore</text>
<polyline points="78.0,334.6 224.0,320.9 370.0,304.4 516.0,302.2 662.0,291.8 808.0,290.1 954.0,299.2" fill="none" stroke="#238b57" stroke-width="3"/>
<circle cx="78.0" cy="334.6" r="4" fill="#238b57"/>
<circle cx="224.0" cy="320.9" r="4" fill="#238b57"/>
<circle cx="370.0" cy="304.4" r="4" fill="#238b57"/>
<circle cx="516.0" cy="302.2" r="4" fill="#238b57"/>
<circle cx="662.0" cy="291.8" r="4" fill="#238b57"/>
<circle cx="808.0" cy="290.1" r="4" fill="#238b57"/>
<circle cx="954.0" cy="299.2" r="4" fill="#238b57"/>
<text x="378" y="412" fill="#238b57">bfs_parent</text>
<polyline points="78.0,334.6 224.0,323.7 370.0,316.2 516.0,319.1 662.0,316.2 808.0,317.2 954.0,320.6" fill="none" stroke="#8a5cd4" stroke-width="3"/>
<circle cx="78.0" cy="334.6" r="4" fill="#8a5cd4"/>
<circle cx="224.0" cy="323.7" r="4" fill="#8a5cd4"/>
<circle cx="370.0" cy="316.2" r="4" fill="#8a5cd4"/>
<circle cx="516.0" cy="319.1" r="4" fill="#8a5cd4"/>
<circle cx="662.0" cy="316.2" r="4" fill="#8a5cd4"/>
<circle cx="808.0" cy="317.2" r="4" fill="#8a5cd4"/>
<circle cx="954.0" cy="320.6" r="4" fill="#8a5cd4"/>
<text x="528" y="412" fill="#8a5cd4">pagerank</text>
<polyline points="78.0,334.6 224.0,331.6 370.0,326.4 516.0,323.8 662.0,322.9 808.0,323.2 954.0,324.5" fill="none" stroke="#c79a1f" stroke-width="3"/>
<circle cx="78.0" cy="334.6" r="4" fill="#c79a1f"/>
<circle cx="224.0" cy="331.6" r="4" fill="#c79a1f"/>
<circle cx="370.0" cy="326.4" r="4" fill="#c79a1f"/>
<circle cx="516.0" cy="323.8" r="4" fill="#c79a1f"/>
<circle cx="662.0" cy="322.9" r="4" fill="#c79a1f"/>
<circle cx="808.0" cy="323.2" r="4" fill="#c79a1f"/>
<circle cx="954.0" cy="324.5" r="4" fill="#c79a1f"/>
<text x="678" y="412" fill="#c79a1f">sssp</text>
<polyline points="78.0,334.6 224.0,327.2 370.0,320.5 516.0,319.6 662.0,318.8 808.0,320.6 954.0,323.1" fill="none" stroke="#0f8b8d" stroke-width="3"/>
<circle cx="78.0" cy="334.6" r="4" fill="#0f8b8d"/>
<circle cx="224.0" cy="327.2" r="4" fill="#0f8b8d"/>
<circle cx="370.0" cy="320.5" r="4" fill="#0f8b8d"/>
<circle cx="516.0" cy="319.6" r="4" fill="#0f8b8d"/>
<circle cx="662.0" cy="318.8" r="4" fill="#0f8b8d"/>
<circle cx="808.0" cy="320.6" r="4" fill="#0f8b8d"/>
<circle cx="954.0" cy="323.1" r="4" fill="#0f8b8d"/>
<text x="828" y="412" fill="#0f8b8d">pagerank_dataidx</text>
<polyline points="78.0,334.6 224.0,331.0 370.0,327.7 516.0,330.2 662.0,326.5 808.0,326.1 954.0,327.2" fill="none" stroke="#3478d4" stroke-width="3"/>
<circle cx="78.0" cy="334.6" r="4" fill="#3478d4"/>
<circle cx="224.0" cy="331.0" r="4" fill="#3478d4"/>
<circle cx="370.0" cy="327.7" r="4" fill="#3478d4"/>
<circle cx="516.0" cy="330.2" r="4" fill="#3478d4"/>
<circle cx="662.0" cy="326.5" r="4" fill="#3478d4"/>
<circle cx="808.0" cy="326.1" r="4" fill="#3478d4"/>
<circle cx="954.0" cy="327.2" r="4" fill="#3478d4"/>
<text x="978" y="412" fill="#3478d4">bfs_set</text>
<polyline points="78.0,334.6 224.0,311.3 370.0,264.6 516.0,217.8 662.0,171.1 808.0,124.4 954.0,77.7" fill="none" stroke="#9aa4b2" stroke-width="3"/>
<circle cx="78.0" cy="334.6" r="4" fill="#9aa4b2"/>
<circle cx="224.0" cy="311.3" r="4" fill="#9aa4b2"/>
<circle cx="370.0" cy="264.6" r="4" fill="#9aa4b2"/>
<circle cx="516.0" cy="217.8" r="4" fill="#9aa4b2"/>
<circle cx="662.0" cy="171.1" r="4" fill="#9aa4b2"/>
<circle cx="808.0" cy="124.4" r="4" fill="#9aa4b2"/>
<circle cx="954.0" cy="77.7" r="4" fill="#9aa4b2"/>
<text x="1128" y="412" fill="#9aa4b2">ideal</text>
</svg>