<?xml version="1.0" encoding="utf-8" standalone="no"?>
<!DOCTYPE svg PUBLIC "-//W3C//DTD SVG 1.1//EN"
  "http://www.w3.org/Graphics/SVG/1.1/DTD/svg11.dtd">
<svg xmlns:xlink="http://www.w3.org/1999/xlink" width="929.791406pt" height="459.277643pt" viewBox="0 0 929.791406 459.277643" xmlns="http://www.w3.org/2000/svg" version="1.1">
 <metadata>
  <rdf:RDF xmlns:dc="http://purl.org/dc/elements/1.1/" xmlns:cc="http://creativecommons.org/ns#" xmlns:rdf="http://www.w3.org/1999/02/22-rdf-syntax-ns#">
   <cc:Work>
    <dc:type rdf:resource="http://purl.org/dc/dcmitype/StillImage"/>
    <dc:date>2026-10-09T11:53:06.689326</dc:date>
    <dc:format>image/svg+xml</dc:format>
    <dc:creator>
     <cc:Agent>
      <dc:title>Matplotlib v3.11.1, https://matplotlib.org/</dc:title>
     </cc:Agent>
    </dc:creator>
   </cc:Work>
  </rdf:RDF>
 </metadata>
 <defs>
  <style type="text/css">*{stroke-linejoin: round; stroke-linecap: butt}</style>
 </defs>
 <g id="figure_1">
  <g id="patch_1">
   <path d="M 0 459.277643 
L 929.791406 459.277643 
L 929.791406 0 
L 0 0 
z
" style="fill: #ffffff"/>
  </g>
  <g id="axes_1">
   <g id="patch_2">
    <path d="M 41.513516 361.012079 
L 922.591406 361.012079 
L 922.591406 35.45032 
L 41.513516 35.45032 
z
" style="fill: #ffffff"/>
   </g>
   <g id="patch_3">
    <path d="M 81.562511 361.012079 
L 124.472148 361.012079 
L 124.472148 167.968854 
L 81.562511 167.968854 
z
" clip-path="url(#p82086a799d)" style="fill: #5885ad"/>
   </g>
   <g id="patch_4">
    <path d="M 200.755948 361.012079 
L 243.665586 361.012079 
L 243.665586 128.985031 
L 200.755948 128.985031 
z
" clip-path="url(#p82086a799d)" style="fill: #5885ad"/>
   </g>
   <g id="patch_5">
    <path d="M 319.949386 361.012079 
L 362.859023 361.012079 
L 362.859023 83.4642 
L 319.949386 83.4642 
z
" clip-path="url(#p82086a799d)" style="fill: #5885ad"/>
   </g>
   <g id="patch_6">
    <path d="M 439.142823 361.012079 
L 482.052461 361.012079 
L 482.052461 50.953261 
L 439.142823 50.953261 
z
" clip-path="url(#p82086a799d)" style="fill: #5885ad"/>
   </g>
   <g id="patch_7">
    <path d="M 558.336261 361.012079 
L 601.245899 361.012079 
L 601.245899 175.627157 
L 558.336261 175.627157 
z
" clip-path="url(#p82086a799d)" style="fill: #5885ad"/>
   </g>
   <g id="patch_8">
    <path d="M 677.529699 361.012079 
L 720.439336 361.012079 
L 720.439336 123.039079 
L 677.529699 123.039079 
z
" clip-path="url(#p82086a799d)" style="fill: #5885ad"/>
   </g>
   <g id="patch_9">
    <path d="M 796.723136 361.012079 
L 839.632774 361.012079 
L 839.632774 202.836211 
L 796.723136 202.836211 
z
" clip-path="url(#p82086a799d)" style="fill: #5885ad"/>
   </g>
   <g id="patch_10">
    <path d="M 124.472148 361.012079 
L 167.381786 361.012079 
L 167.381786 199.36961 
L 124.472148 199.36961 
z
" clip-path="url(#p82086a799d)" style="fill: #e89e32"/>
   </g>
   <g id="patch_11">
    <path d="M 243.665586 361.012079 
L 286.575223 361.012079 
L 286.575223 116.609945 
L 243.665586 116.609945 
z
" clip-path="url(#p82086a799d)" style="fill: #e89e32"/>
   </g>
   <g id="patch_12">
    <path d="M 362.859023 361.012079 
L 405.768661 361.012079 
L 405.768661 151.70064 
L 362.859023 151.70064 
z
" clip-path="url(#p82086a799d)" style="fill: #e89e32"/>
   </g>
   <g id="patch_13">
    <path d="M 482.052461 361.012079 
L 524.962098 361.012079 
L 524.962098 96.427954 
L 482.052461 96.427954 
z
" clip-path="url(#p82086a799d)" style="fill: #e89e32"/>
   </g>
   <g id="patch_14">
    <path d="M 601.245899 361.012079 
L 644.155536 361.012079 
L 644.155536 242.992937 
L 601.245899 242.992937 
z
" clip-path="url(#p82086a799d)" style="fill: #e89e32"/>
   </g>
   <g id="patch_15">
    <path d="M 720.439336 361.012079 
L 763.348974 361.012079 
L 763.348974 245.740038 
L 720.439336 245.740038 
z
" clip-path="url(#p82086a799d)" style="fill: #e89e32"/>
   </g>
   <g id="patch_16">
    <path d="M 839.632774 361.012079 
L 882.542411 361.012079 
L 882.542411 244.0911 
L 839.632774 244.0911 
z
" clip-path="url(#p82086a799d)" style="fill: #e89e32"/>
   </g>
   <g id="matplotlib.axis_1">
    <g id="xtick_1">
     <g id="line2d_1">
      <defs>
       <path id="md399a684a6" d="M 0 0 
L 0 3.5 
" style="stroke: #000000; stroke-width: 0.8"/>
      </defs>
      <g>
       <use xlink:href="#md399a684a6" x="124.472148" y="361.012079" style="stroke: #000000; stroke-width: 0.8"/>
      </g>
     </g>
     <g id="text_1">
      <!-- compute -->
      <g transform="translate(95.126165 407.268) rotate(-65) scale(0.09 -0.09)">
       <defs>
        <path id="DejaVuSans-46" d="M 3122 3366 
L 3122 2828 
Q 2878 2963 2633 3030 
Q 2388 3097 2138 3097 
Q 1578 3097 1268 2742 
Q 959 2388 959 1747 
Q 959 1106 1268 751 
Q 1578 397 2138 397 
Q 2388 397 2633 464 
Q 2878 531 3122 666 
L 3122 134 
Q 2881 22 2623 -34 
Q 2366 -91 2075 -91 
Q 1284 -91 818 406 
Q 353 903 353 1747 
Q 353 2603 823 3093 
Q 1294 3584 2113 3584 
Q 2378 3584 2631 3529 
Q 2884 3475 3122 3366 
z
" transform="scale(0.015625)"/>
        <path id="DejaVuSans-52" d="M 1959 3097 
Q 1497 3097 1228 2736 
Q 959 2375 959 1747 
Q 959 1119 1226 758 
Q 1494 397 1959 397 
Q 2419 397 2687 759 
Q 2956 1122 2956 1747 
Q 2956 2369 2687 2733 
Q 2419 3097 1959 3097 
z
M 1959 3584 
Q 2709 3584 3137 3096 
Q 3566 2609 3566 1747 
Q 3566 888 3137 398 
Q 2709 -91 1959 -91 
Q 1206 -91 779 398 
Q 353 888 353 1747 
Q 353 2609 779 3096 
Q 1206 3584 1959 3584 
z
" transform="scale(0.015625)"/>
        <path id="DejaVuSans-50" d="M 3328 2828 
Q 3544 3216 3844 3400 
Q 4144 3584 4550 3584 
Q 5097 3584 5394 3201 
Q 5691 2819 5691 2113 
L 5691 0 
L 5113 0 
L 5113 2094 
Q 5113 2597 4934 2840 
Q 4756 3084 4391 3084 
Q 3944 3084 3684 2787 
Q 3425 2491 3425 1978 
L 3425 0 
L 2847 0 
L 2847 2094 
Q 2847 2600 2669 2842 
Q 2491 3084 2119 3084 
Q 1678 3084 1418 2786 
Q 1159 2488 1159 1978 
L 1159 0 
L 581 0 
L 581 3500 
L 1159 3500 
L 1159 2956 
Q 1356 3278 1631 3431 
Q 1906 3584 2284 3584 
Q 2666 3584 2933 3390 
Q 3200 3197 3328 2828 
z
" transform="scale(0.015625)"/>
        <path id="DejaVuSans-53" d="M 1159 525 
L 1159 -1331 
L 581 -1331 
L 581 3500 
L 1159 3500 
L 1159 2969 
Q 1341 3281 1617 3432 
Q 1894 3584 2278 3584 
Q 2916 3584 3314 3078 
Q 3713 2572 3713 1747 
Q 3713 922 3314 415 
Q 2916 -91 2278 -91 
Q 1894 -91 1617 61 
Q 1341 213 1159 525 
z
M 3116 1747 
Q 3116 2381 2855 2742 
Q 2594 3103 2138 3103 
Q 1681 3103 1420 2742 
Q 1159 2381 1159 1747 
Q 1159 1113 1420 752 
Q 1681 391 2138 391 
Q 2594 391 2855 752 
Q 3116 1113 3116 1747 
z
" transform="scale(0.015625)"/>
        <path id="DejaVuSans-58" d="M 544 1381 
L 544 3500 
L 1119 3500 
L 1119 1403 
Q 1119 906 1312 657 
Q 1506 409 1894 409 
Q 2359 409 2629 706 
Q 2900 1003 2900 1516 
L 2900 3500 
L 3475 3500 
L 3475 0 
L 2900 0 
L 2900 538 
Q 2691 219 2414 64 
Q 2138 -91 1772 -91 
Q 1169 -91 856 284 
Q 544 659 544 1381 
z
M 1991 3584 
L 1991 3584 
z
" transform="scale(0.015625)"/>
        <path id="DejaVuSans-57" d="M 1172 4494 
L 1172 3500 
L 2356 3500 
L 2356 3053 
L 1172 3053 
L 1172 1153 
Q 1172 725 1289 603 
Q 1406 481 1766 481 
L 2356 481 
L 2356 0 
L 1766 0 
Q 1100 0 847 248 
Q 594 497 594 1153 
L 594 3053 
L 172 3053 
L 172 3500 
L 594 3500 
L 594 4494 
L 1172 4494 
z
" transform="scale(0.015625)"/>
        <path id="DejaVuSans-48" d="M 3597 1894 
L 3597 1613 
L 953 1613 
Q 991 1019 1311 708 
Q 1631 397 2203 397 
Q 2534 397 2845 478 
Q 3156 559 3463 722 
L 3463 178 
Q 3153 47 2828 -22 
Q 2503 -91 2169 -91 
Q 1331 -91 842 396 
Q 353 884 353 1716 
Q 353 2575 817 3079 
Q 1281 3584 2069 3584 
Q 2775 3584 3186 3129 
Q 3597 2675 3597 1894 
z
M 3022 2063 
Q 3016 2534 2758 2815 
Q 2500 3097 2075 3097 
Q 1594 3097 1305 2825 
Q 1016 2553 972 2059 
L 3022 2063 
z
" transform="scale(0.015625)"/>
       </defs>
       <use xlink:href="#DejaVuSans-46"/>
       <use xlink:href="#DejaVuSans-52" transform="translate(54.984375 0)"/>
       <use xlink:href="#DejaVuSans-50" transform="translate(116.171875 0)"/>
       <use xlink:href="#DejaVuSans-53" transform="translate(213.578125 0)"/>
       <use xlink:href="#DejaVuSans-58" transform="translate(277.0625 0)"/>
       <use xlink:href="#DejaVuSans-57" transform="translate(340.4375 0)"/>
       <use xlink:href="#DejaVuSans-48" transform="translate(379.640625 0)"/>
      </g>
      <!-- B4 O3 * -->
      <g transform="translate(106.93296 407.507383) rotate(-65) scale(0.09 -0.09)">
       <defs>
        <path id="DejaVuSans-25" d="M 1259 2228 
L 1259 519 
L 2272 519 
Q 2781 519 3026 730 
Q 3272 941 3272 1375 
Q 3272 1813 3026 2020 
Q 2781 2228 2272 2228 
L 1259 2228 
z
M 1259 4147 
L 1259 2741 
L 2194 2741 
Q 2656 2741 2882 2914 
Q 3109 3088 3109 3444 
Q 3109 3797 2882 3972 
Q 2656 4147 2194 4147 
L 1259 4147 
z
M 628 4666 
L 2241 4666 
Q 2963 4666 3353 4366 
Q 3744 4066 3744 3513 
Q 3744 3084 3544 2831 
Q 3344 2578 2956 2516 
Q 3422 2416 3680 2098 
Q 3938 1781 3938 1306 
Q 3938 681 3513 340 
Q 3088 0 2303 0 
L 628 0 
L 628 4666 
z
" transform="scale(0.015625)"/>
        <path id="DejaVuSans-17" d="M 2419 4116 
L 825 1625 
L 2419 1625 
L 2419 4116 
z
M 2253 4666 
L 3047 4666 
L 3047 1625 
L 3713 1625 
L 3713 1100 
L 3047 1100 
L 3047 0 
L 2419 0 
L 2419 1100 
L 313 1100 
L 313 1709 
L 2253 4666 
z
" transform="scale(0.015625)"/>
        <path id="DejaVuSans-3" transform="scale(0.015625)"/>
        <path id="DejaVuSans-32" d="M 2522 4238 
Q 1834 4238 1429 3725 
Q 1025 3213 1025 2328 
Q 1025 1447 1429 934 
Q 1834 422 2522 422 
Q 3209 422 3611 934 
Q 4013 1447 4013 2328 
Q 4013 3213 3611 3725 
Q 3209 4238 2522 4238 
z
M 2522 4750 
Q 3503 4750 4090 4092 
Q 4678 3434 4678 2328 
Q 4678 1225 4090 567 
Q 3503 -91 2522 -91 
Q 1538 -91 948 565 
Q 359 1222 359 2328 
Q 359 3434 948 4092 
Q 1538 4750 2522 4750 
z
" transform="scale(0.015625)"/>
        <path id="DejaVuSans-16" d="M 2597 2516 
Q 3050 2419 3304 2112 
Q 3559 1806 3559 1356 
Q 3559 666 3084 287 
Q 2609 -91 1734 -91 
Q 1441 -91 1130 -33 
Q 819 25 488 141 
L 488 750 
Q 750 597 1062 519 
Q 1375 441 1716 441 
Q 2309 441 2620 675 
Q 2931 909 2931 1356 
Q 2931 1769 2642 2001 
Q 2353 2234 1838 2234 
L 1294 2234 
L 1294 2753 
L 1863 2753 
Q 2328 2753 2575 2939 
Q 2822 3125 2822 3475 
Q 2822 3834 2567 4026 
Q 2313 4219 1838 4219 
Q 1578 4219 1281 4162 
Q 984 4106 628 3988 
L 628 4550 
Q 988 4650 1302 4700 
Q 1616 4750 1894 4750 
Q 2613 4750 3031 4423 
Q 3450 4097 3450 3541 
Q 3450 3153 3228 2886 
Q 3006 2619 2597 2516 
z
" transform="scale(0.015625)"/>
        <path id="DejaVuSans-d" d="M 3009 3897 
L 1888 3291 
L 3009 2681 
L 2828 2375 
L 1778 3009 
L 1778 1831 
L 1422 1831 
L 1422 3009 
L 372 2375 
L 191 2681 
L 1313 3291 
L 191 3897 
L 372 4206 
L 1422 3572 
L 1422 4750 
L 1778 4750 
L 1778 3572 
L 2828 4206 
L 3009 3897 
z
" transform="scale(0.015625)"/>
       </defs>
       <use xlink:href="#DejaVuSans-25"/>
       <use xlink:href="#DejaVuSans-17" transform="translate(68.609375 0)"/>
       <use xlink:href="#DejaVuSans-3" transform="translate(132.234375 0)"/>
       <use xlink:href="#DejaVuSans-32" transform="translate(164.015625 0)"/>
       <use xlink:href="#DejaVuSans-16" transform="translate(242.734375 0)"/>
       <use xlink:href="#DejaVuSans-3" transform="translate(306.359375 0)"/>
       <use xlink:href="#DejaVuSans-d" transform="translate(338.140625 0)"/>
      </g>
     </g>
    </g>
    <g id="xtick_2">
     <g id="line2d_2">
      <g>
       <use xlink:href="#md399a684a6" x="243.665586" y="361.012079" style="stroke: #000000; stroke-width: 0.8"/>
      </g>
     </g>
     <g id="text_2">
      <!-- compute -->
      <g transform="translate(214.319602 407.268) rotate(-65) scale(0.09 -0.09)">
       <use xlink:href="#DejaVuSans-46"/>
       <use xlink:href="#DejaVuSans-52" transform="translate(54.984375 0)"/>
       <use xlink:href="#DejaVuSans-50" transform="translate(116.171875 0)"/>
       <use xlink:href="#DejaVuSans-53" transform="translate(213.578125 0)"/>
       <use xlink:href="#DejaVuSans-58" transform="translate(277.0625 0)"/>
       <use xlink:href="#DejaVuSans-57" transform="translate(340.4375 0)"/>
       <use xlink:href="#DejaVuSans-48" transform="translate(379.640625 0)"/>
      </g>
      <!-- B6 O3 -->
      <g transform="translate(229.237 400.836674) rotate(-65) scale(0.09 -0.09)">
       <defs>
        <path id="DejaVuSans-19" d="M 2113 2584 
Q 1688 2584 1439 2293 
Q 1191 2003 1191 1497 
Q 1191 994 1439 701 
Q 1688 409 2113 409 
Q 2538 409 2786 701 
Q 3034 994 3034 1497 
Q 3034 2003 2786 2293 
Q 2538 2584 2113 2584 
z
M 3366 4563 
L 3366 3988 
Q 3128 4100 2886 4159 
Q 2644 4219 2406 4219 
Q 1781 4219 1451 3797 
Q 1122 3375 1075 2522 
Q 1259 2794 1537 2939 
Q 1816 3084 2150 3084 
Q 2853 3084 3261 2657 
Q 3669 2231 3669 1497 
Q 3669 778 3244 343 
Q 2819 -91 2113 -91 
Q 1303 -91 875 529 
Q 447 1150 447 2328 
Q 447 3434 972 4092 
Q 1497 4750 2381 4750 
Q 2619 4750 2861 4703 
Q 3103 4656 3366 4563 
z
" transform="scale(0.015625)"/>
       </defs>
       <use xlink:href="#DejaVuSans-25"/>
       <use xlink:href="#DejaVuSans-19" transform="translate(68.609375 0)"/>
       <use xlink:href="#DejaVuSans-3" transform="translate(132.234375 0)"/>
       <use xlink:href="#DejaVuSans-32" transform="translate(164.015625 0)"/>
       <use xlink:href="#DejaVuSans-16" transform="translate(242.734375 0)"/>
      </g>
     </g>
    </g>
    <g id="xtick_3">
     <g id="line2d_3">
      <g>
       <use xlink:href="#md399a684a6" x="362.859023" y="361.012079" style="stroke: #000000; stroke-width: 0.8"/>
      </g>
     </g>
     <g id="text_3">
      <!-- loop_skew -->
      <g transform="translate(330.766153 413.159014) rotate(-65) scale(0.09 -0.09)">
       <defs>
        <path id="DejaVuSans-4f" d="M 603 4863 
L 1178 4863 
L 1178 0 
L 603 0 
L 603 4863 
z
" transform="scale(0.015625)"/>
        <path id="DejaVuSans-42" d="M 3263 -1063 
L 3263 -1509 
L -63 -1509 
L -63 -1063 
L 3263 -1063 
z
" transform="scale(0.015625)"/>
        <path id="DejaVuSans-56" d="M 2834 3397 
L 2834 2853 
Q 2591 2978 2328 3040 
Q 2066 3103 1784 3103 
Q 1356 3103 1142 2972 
Q 928 2841 928 2578 
Q 928 2378 1081 2264 
Q 1234 2150 1697 2047 
L 1894 2003 
Q 2506 1872 2764 1633 
Q 3022 1394 3022 966 
Q 3022 478 2636 193 
Q 2250 -91 1575 -91 
Q 1294 -91 989 -36 
Q 684 19 347 128 
L 347 722 
Q 666 556 975 473 
Q 1284 391 1588 391 
Q 1994 391 2212 530 
Q 2431 669 2431 922 
Q 2431 1156 2273 1281 
Q 2116 1406 1581 1522 
L 1381 1569 
Q 847 1681 609 1914 
Q 372 2147 372 2553 
Q 372 3047 722 3315 
Q 1072 3584 1716 3584 
Q 2034 3584 2315 3537 
Q 2597 3491 2834 3397 
z
" transform="scale(0.015625)"/>
        <path id="DejaVuSans-4e" d="M 581 4863 
L 1159 4863 
L 1159 1991 
L 2875 3500 
L 3609 3500 
L 1753 1863 
L 3688 0 
L 2938 0 
L 1159 1709 
L 1159 0 
L 581 0 
L 581 4863 
z
" transform="scale(0.015625)"/>
        <path id="DejaVuSans-5a" d="M 269 3500 
L 844 3500 
L 1563 769 
L 2278 3500 
L 2956 3500 
L 3675 769 
L 4391 3500 
L 4966 3500 
L 4050 0 
L 3372 0 
L 2619 2869 
L 1863 0 
L 1184 0 
L 269 3500 
z
" transform="scale(0.015625)"/>
       </defs>
       <use xlink:href="#DejaVuSans-4f"/>
       <use xlink:href="#DejaVuSans-52" transform="translate(27.78125 0)"/>
       <use xlink:href="#DejaVuSans-52" transform="translate(88.96875 0)"/>
       <use xlink:href="#DejaVuSans-53" transform="translate(150.15625 0)"/>
       <use xlink:href="#DejaVuSans-42" transform="translate(213.640625 0)"/>
       <use xlink:href="#DejaVuSans-56" transform="translate(263.640625 0)"/>
       <use xlink:href="#DejaVuSans-4e" transform="translate(315.734375 0)"/>
       <use xlink:href="#DejaVuSans-48" transform="translate(370.078125 0)"/>
       <use xlink:href="#DejaVuSans-5a" transform="translate(431.609375 0)"/>
      </g>
      <!-- B4 O3 * -->
      <g transform="translate(345.319835 407.50768) rotate(-65) scale(0.09 -0.09)">
       <use xlink:href="#DejaVuSans-25"/>
       <use xlink:href="#DejaVuSans-17" transform="translate(68.609375 0)"/>
       <use xlink:href="#DejaVuSans-3" transform="translate(132.234375 0)"/>
       <use xlink:href="#DejaVuSans-32" transform="translate(164.015625 0)"/>
       <use xlink:href="#DejaVuSans-16" transform="translate(242.734375 0)"/>
       <use xlink:href="#DejaVuSans-3" transform="translate(306.359375 0)"/>
       <use xlink:href="#DejaVuSans-d" transform="translate(338.140625 0)"/>
      </g>
     </g>
    </g>
    <g id="xtick_4">
     <g id="line2d_4">
      <g>
       <use xlink:href="#md399a684a6" x="482.052461" y="361.012079" style="stroke: #000000; stroke-width: 0.8"/>
      </g>
     </g>
     <g id="text_4">
      <!-- loop_skew -->
      <g transform="translate(449.959591 413.159014) rotate(-65) scale(0.09 -0.09)">
       <use xlink:href="#DejaVuSans-4f"/>
       <use xlink:href="#DejaVuSans-52" transform="translate(27.78125 0)"/>
       <use xlink:href="#DejaVuSans-52" transform="translate(88.96875 0)"/>
       <use xlink:href="#DejaVuSans-53" transform="translate(150.15625 0)"/>
       <use xlink:href="#DejaVuSans-42" transform="translate(213.640625 0)"/>
       <use xlink:href="#DejaVuSans-56" transform="translate(263.640625 0)"/>
       <use xlink:href="#DejaVuSans-4e" transform="translate(315.734375 0)"/>
       <use xlink:href="#DejaVuSans-48" transform="translate(370.078125 0)"/>
       <use xlink:href="#DejaVuSans-5a" transform="translate(431.609375 0)"/>
      </g>
      <!-- B6 O3 -->
      <g transform="translate(467.623875 400.836971) rotate(-65) scale(0.09 -0.09)">
       <use xlink:href="#DejaVuSans-25"/>
       <use xlink:href="#DejaVuSans-19" transform="translate(68.609375 0)"/>
       <use xlink:href="#DejaVuSans-3" transform="translate(132.234375 0)"/>
       <use xlink:href="#DejaVuSans-32" transform="translate(164.015625 0)"/>
       <use xlink:href="#DejaVuSans-16" transform="translate(242.734375 0)"/>
      </g>
     </g>
    </g>
    <g id="xtick_5">
     <g id="line2d_5">
      <g>
       <use xlink:href="#md399a684a6" x="601.245899" y="361.012079" style="stroke: #000000; stroke-width: 0.8"/>
      </g>
     </g>
     <g id="text_5">
      <!-- one_long_ordinary -->
      <g transform="translate(553.737301 446.218148) rotate(-65) scale(0.09 -0.09)">
       <defs>
        <path id="DejaVuSans-51" d="M 3513 2113 
L 3513 0 
L 2938 0 
L 2938 2094 
Q 2938 2591 2744 2837 
Q 2550 3084 2163 3084 
Q 1697 3084 1428 2787 
Q 1159 2491 1159 1978 
L 1159 0 
L 581 0 
L 581 3500 
L 1159 3500 
L 1159 2956 
Q 1366 3272 1645 3428 
Q 1925 3584 2291 3584 
Q 2894 3584 3203 3211 
Q 3513 2838 3513 2113 
z
" transform="scale(0.015625)"/>
        <path id="DejaVuSans-4a" d="M 2906 1791 
Q 2906 2416 2648 2759 
Q 2391 3103 1925 3103 
Q 1463 3103 1205 2759 
Q 947 2416 947 1791 
Q 947 1169 1205 825 
Q 1463 481 1925 481 
Q 2391 481 2648 825 
Q 2906 1169 2906 1791 
z
M 3481 434 
Q 3481 -459 3084 -895 
Q 2688 -1331 1869 -1331 
Q 1566 -1331 1297 -1286 
Q 1028 -1241 775 -1147 
L 775 -588 
Q 1028 -725 1275 -790 
Q 1522 -856 1778 -856 
Q 2344 -856 2625 -561 
Q 2906 -266 2906 331 
L 2906 616 
Q 2728 306 2450 153 
Q 2172 0 1784 0 
Q 1141 0 747 490 
Q 353 981 353 1791 
Q 353 2603 747 3093 
Q 1141 3584 1784 3584 
Q 2172 3584 2450 3431 
Q 2728 3278 2906 2969 
L 2906 3500 
L 3481 3500 
L 3481 434 
z
" transform="scale(0.015625)"/>
        <path id="DejaVuSans-55" d="M 2631 2963 
Q 2534 3019 2420 3045 
Q 2306 3072 2169 3072 
Q 1681 3072 1420 2755 
Q 1159 2438 1159 1844 
L 1159 0 
L 581 0 
L 581 3500 
L 1159 3500 
L 1159 2956 
Q 1341 3275 1631 3429 
Q 1922 3584 2338 3584 
Q 2397 3584 2469 3576 
Q 2541 3569 2628 3553 
L 2631 2963 
z
" transform="scale(0.015625)"/>
        <path id="DejaVuSans-47" d="M 2906 2969 
L 2906 4863 
L 3481 4863 
L 3481 0 
L 2906 0 
L 2906 525 
Q 2725 213 2448 61 
Q 2172 -91 1784 -91 
Q 1150 -91 751 415 
Q 353 922 353 1747 
Q 353 2572 751 3078 
Q 1150 3584 1784 3584 
Q 2172 3584 2448 3432 
Q 2725 3281 2906 2969 
z
M 947 1747 
Q 947 1113 1208 752 
Q 1469 391 1925 391 
Q 2381 391 2643 752 
Q 2906 1113 2906 1747 
Q 2906 2381 2643 2742 
Q 2381 3103 1925 3103 
Q 1469 3103 1208 2742 
Q 947 2381 947 1747 
z
" transform="scale(0.015625)"/>
        <path id="DejaVuSans-4c" d="M 603 3500 
L 1178 3500 
L 1178 0 
L 603 0 
L 603 3500 
z
M 603 4863 
L 1178 4863 
L 1178 4134 
L 603 4134 
L 603 4863 
z
" transform="scale(0.015625)"/>
        <path id="DejaVuSans-44" d="M 2194 1759 
Q 1497 1759 1228 1600 
Q 959 1441 959 1056 
Q 959 750 1161 570 
Q 1363 391 1709 391 
Q 2188 391 2477 730 
Q 2766 1069 2766 1631 
L 2766 1759 
L 2194 1759 
z
M 3341 1997 
L 3341 0 
L 2766 0 
L 2766 531 
Q 2569 213 2275 61 
Q 1981 -91 1556 -91 
Q 1019 -91 701 211 
Q 384 513 384 1019 
Q 384 1609 779 1909 
Q 1175 2209 1959 2209 
L 2766 2209 
L 2766 2266 
Q 2766 2663 2505 2880 
Q 2244 3097 1772 3097 
Q 1472 3097 1187 3025 
Q 903 2953 641 2809 
L 641 3341 
Q 956 3463 1253 3523 
Q 1550 3584 1831 3584 
Q 2591 3584 2966 3190 
Q 3341 2797 3341 1997 
z
" transform="scale(0.015625)"/>
        <path id="DejaVuSans-5c" d="M 2059 -325 
Q 1816 -950 1584 -1140 
Q 1353 -1331 966 -1331 
L 506 -1331 
L 506 -850 
L 844 -850 
Q 1081 -850 1212 -737 
Q 1344 -625 1503 -206 
L 1606 56 
L 191 3500 
L 800 3500 
L 1894 763 
L 2988 3500 
L 3597 3500 
L 2059 -325 
z
" transform="scale(0.015625)"/>
       </defs>
       <use xlink:href="#DejaVuSans-52"/>
       <use xlink:href="#DejaVuSans-51" transform="translate(61.1875 0)"/>
       <use xlink:href="#DejaVuSans-48" transform="translate(124.5625 0)"/>
       <use xlink:href="#DejaVuSans-42" transform="translate(186.09375 0)"/>
       <use xlink:href="#DejaVuSans-4f" transform="translate(236.09375 0)"/>
       <use xlink:href="#DejaVuSans-52" transform="translate(263.875 0)"/>
       <use xlink:href="#DejaVuSans-51" transform="translate(325.0625 0)"/>
       <use xlink:href="#DejaVuSans-4a" transform="translate(388.4375 0)"/>
       <use xlink:href="#DejaVuSans-42" transform="translate(451.921875 0)"/>
       <use xlink:href="#DejaVuSans-52" transform="translate(501.921875 0)"/>
       <use xlink:href="#DejaVuSans-55" transform="translate(563.109375 0)"/>
       <use xlink:href="#DejaVuSans-47" transform="translate(602.46875 0)"/>
       <use xlink:href="#DejaVuSans-4c" transform="translate(665.953125 0)"/>
       <use xlink:href="#DejaVuSans-51" transform="translate(693.734375 0)"/>
       <use xlink:href="#DejaVuSans-44" transform="translate(757.109375 0)"/>
       <use xlink:href="#DejaVuSans-55" transform="translate(818.390625 0)"/>
       <use xlink:href="#DejaVuSans-5c" transform="translate(859.5 0)"/>
      </g>
      <!-- B4 O3 * -->
      <g transform="translate(583.70671 407.50768) rotate(-65) scale(0.09 -0.09)">
       <use xlink:href="#DejaVuSans-25"/>
       <use xlink:href="#DejaVuSans-17" transform="translate(68.609375 0)"/>
       <use xlink:href="#DejaVuSans-3" transform="translate(132.234375 0)"/>
       <use xlink:href="#DejaVuSans-32" transform="translate(164.015625 0)"/>
       <use xlink:href="#DejaVuSans-16" transform="translate(242.734375 0)"/>
       <use xlink:href="#DejaVuSans-3" transform="translate(306.359375 0)"/>
       <use xlink:href="#DejaVuSans-d" transform="translate(338.140625 0)"/>
      </g>
     </g>
    </g>
    <g id="xtick_6">
     <g id="line2d_6">
      <g>
       <use xlink:href="#md399a684a6" x="720.439336" y="361.012079" style="stroke: #000000; stroke-width: 0.8"/>
      </g>
     </g>
     <g id="text_6">
      <!-- short_ordinary -->
      <g transform="translate(680.345906 430.31627) rotate(-65) scale(0.09 -0.09)">
       <defs>
        <path id="DejaVuSans-4b" d="M 3513 2113 
L 3513 0 
L 2938 0 
L 2938 2094 
Q 2938 2591 2744 2837 
Q 2550 3084 2163 3084 
Q 1697 3084 1428 2787 
Q 1159 2491 1159 1978 
L 1159 0 
L 581 0 
L 581 4863 
L 1159 4863 
L 1159 2956 
Q 1366 3272 1645 3428 
Q 1925 3584 2291 3584 
Q 2894 3584 3203 3211 
Q 3513 2838 3513 2113 
z
" transform="scale(0.015625)"/>
       </defs>
       <use xlink:href="#DejaVuSans-56"/>
       <use xlink:href="#DejaVuSans-4b" transform="translate(52.09375 0)"/>
       <use xlink:href="#DejaVuSans-52" transform="translate(115.46875 0)"/>
       <use xlink:href="#DejaVuSans-55" transform="translate(176.65625 0)"/>
       <use xlink:href="#DejaVuSans-57" transform="translate(217.765625 0)"/>
       <use xlink:href="#DejaVuSans-42" transform="translate(256.96875 0)"/>
       <use xlink:href="#DejaVuSans-52" transform="translate(306.96875 0)"/>
       <use xlink:href="#DejaVuSans-55" transform="translate(368.15625 0)"/>
       <use xlink:href="#DejaVuSans-47" transform="translate(407.515625 0)"/>
       <use xlink:href="#DejaVuSans-4c" transform="translate(471 0)"/>
       <use xlink:href="#DejaVuSans-51" transform="translate(498.78125 0)"/>
       <use xlink:href="#DejaVuSans-44" transform="translate(562.15625 0)"/>
       <use xlink:href="#DejaVuSans-55" transform="translate(623.4375 0)"/>
       <use xlink:href="#DejaVuSans-5c" transform="translate(664.546875 0)"/>
      </g>
      <!-- B4 O3 * -->
      <g transform="translate(702.900148 407.50768) rotate(-65) scale(0.09 -0.09)">
       <use xlink:href="#DejaVuSans-25"/>
       <use xlink:href="#DejaVuSans-17" transform="translate(68.609375 0)"/>
       <use xlink:href="#DejaVuSans-3" transform="translate(132.234375 0)"/>
       <use xlink:href="#DejaVuSans-32" transform="translate(164.015625 0)"/>
       <use xlink:href="#DejaVuSans-16" transform="translate(242.734375 0)"/>
       <use xlink:href="#DejaVuSans-3" transform="translate(306.359375 0)"/>
       <use xlink:href="#DejaVuSans-d" transform="translate(338.140625 0)"/>
      </g>
     </g>
    </g>
    <g id="xtick_7">
     <g id="line2d_7">
      <g>
       <use xlink:href="#md399a684a6" x="839.632774" y="361.012079" style="stroke: #000000; stroke-width: 0.8"/>
      </g>
     </g>
     <g id="text_7">
      <!-- short_ordinary -->
      <g transform="translate(799.539344 430.31627) rotate(-65) scale(0.09 -0.09)">
       <use xlink:href="#DejaVuSans-56"/>
       <use xlink:href="#DejaVuSans-4b" transform="translate(52.09375 0)"/>
       <use xlink:href="#DejaVuSans-52" transform="translate(115.46875 0)"/>
       <use xlink:href="#DejaVuSans-55" transform="translate(176.65625 0)"/>
       <use xlink:href="#DejaVuSans-57" transform="translate(217.765625 0)"/>
       <use xlink:href="#DejaVuSans-42" transform="translate(256.96875 0)"/>
       <use xlink:href="#DejaVuSans-52" transform="translate(306.96875 0)"/>
       <use xlink:href="#DejaVuSans-55" transform="translate(368.15625 0)"/>
       <use xlink:href="#DejaVuSans-47" transform="translate(407.515625 0)"/>
       <use xlink:href="#DejaVuSans-4c" transform="translate(471 0)"/>
       <use xlink:href="#DejaVuSans-51" transform="translate(498.78125 0)"/>
       <use xlink:href="#DejaVuSans-44" transform="translate(562.15625 0)"/>
       <use xlink:href="#DejaVuSans-55" transform="translate(623.4375 0)"/>
       <use xlink:href="#DejaVuSans-5c" transform="translate(664.546875 0)"/>
      </g>
      <!-- B6 O3 -->
      <g transform="translate(825.204188 400.836971) rotate(-65) scale(0.09 -0.09)">
       <use xlink:href="#DejaVuSans-25"/>
       <use xlink:href="#DejaVuSans-19" transform="translate(68.609375 0)"/>
       <use xlink:href="#DejaVuSans-3" transform="translate(132.234375 0)"/>
       <use xlink:href="#DejaVuSans-32" transform="translate(164.015625 0)"/>
       <use xlink:href="#DejaVuSans-16" transform="translate(242.734375 0)"/>
      </g>
     </g>
    </g>
   </g>
   <g id="matplotlib.axis_2">
    <g id="ytick_1">
     <g id="line2d_8">
      <path d="M 41.513516 361.012079 
L 922.591406 361.012079 
" clip-path="url(#p82086a799d)" style="fill: none; stroke: #b0b0b0; stroke-opacity: 0.2; stroke-width: 0.8; stroke-linecap: square"/>
     </g>
     <g id="line2d_9">
      <defs>
       <path id="m19ec3408cc" d="M 0 0 
L -3.5 0 
" style="stroke: #000000; stroke-width: 0.8"/>
      </defs>
      <g>
       <use xlink:href="#m19ec3408cc" x="41.513516" y="361.012079" style="stroke: #000000; stroke-width: 0.8"/>
      </g>
     </g>
     <g id="text_8">
      <!-- 0.0 -->
      <g transform="translate(20.200703 364.431024) scale(0.09 -0.09)">
       <defs>
        <path id="DejaVuSans-13" d="M 2034 4250 
Q 1547 4250 1301 3770 
Q 1056 3291 1056 2328 
Q 1056 1369 1301 889 
Q 1547 409 2034 409 
Q 2525 409 2770 889 
Q 3016 1369 3016 2328 
Q 3016 3291 2770 3770 
Q 2525 4250 2034 4250 
z
M 2034 4750 
Q 2819 4750 3233 4129 
Q 3647 3509 3647 2328 
Q 3647 1150 3233 529 
Q 2819 -91 2034 -91 
Q 1250 -91 836 529 
Q 422 1150 422 2328 
Q 422 3509 836 4129 
Q 1250 4750 2034 4750 
z
" transform="scale(0.015625)"/>
        <path id="DejaVuSans-11" d="M 684 794 
L 1344 794 
L 1344 0 
L 684 0 
L 684 794 
z
" transform="scale(0.015625)"/>
       </defs>
       <use xlink:href="#DejaVuSans-13"/>
       <use xlink:href="#DejaVuSans-11" transform="translate(63.625 0)"/>
       <use xlink:href="#DejaVuSans-13" transform="translate(95.40625 0)"/>
      </g>
     </g>
    </g>
    <g id="ytick_2">
     <g id="line2d_10">
      <path d="M 41.513516 306.90887 
L 922.591406 306.90887 
" clip-path="url(#p82086a799d)" style="fill: none; stroke: #b0b0b0; stroke-opacity: 0.2; stroke-width: 0.8; stroke-linecap: square"/>
     </g>
     <g id="line2d_11">
      <g>
       <use xlink:href="#m19ec3408cc" x="41.513516" y="306.90887" style="stroke: #000000; stroke-width: 0.8"/>
      </g>
     </g>
     <g id="text_9">
      <!-- 0.5 -->
      <g transform="translate(20.200703 310.327816) scale(0.09 -0.09)">
       <defs>
        <path id="DejaVuSans-18" d="M 691 4666 
L 3169 4666 
L 3169 4134 
L 1269 4134 
L 1269 2991 
Q 1406 3038 1543 3061 
Q 1681 3084 1819 3084 
Q 2600 3084 3056 2656 
Q 3513 2228 3513 1497 
Q 3513 744 3044 326 
Q 2575 -91 1722 -91 
Q 1428 -91 1123 -41 
Q 819 9 494 109 
L 494 744 
Q 775 591 1075 516 
Q 1375 441 1709 441 
Q 2250 441 2565 725 
Q 2881 1009 2881 1497 
Q 2881 1984 2565 2268 
Q 2250 2553 1709 2553 
Q 1456 2553 1204 2497 
Q 953 2441 691 2322 
L 691 4666 
z
" transform="scale(0.015625)"/>
       </defs>
       <use xlink:href="#DejaVuSans-13"/>
       <use xlink:href="#DejaVuSans-11" transform="translate(63.625 0)"/>
       <use xlink:href="#DejaVuSans-18" transform="translate(95.40625 0)"/>
      </g>
     </g>
    </g>
    <g id="ytick_3">
     <g id="line2d_12">
      <path d="M 41.513516 252.805662 
L 922.591406 252.805662 
" clip-path="url(#p82086a799d)" style="fill: none; stroke: #b0b0b0; stroke-opacity: 0.2; stroke-width: 0.8; stroke-linecap: square"/>
     </g>
     <g id="line2d_13">
      <g>
       <use xlink:href="#m19ec3408cc" x="41.513516" y="252.805662" style="stroke: #000000; stroke-width: 0.8"/>
      </g>
     </g>
     <g id="text_10">
      <!-- 1.0 -->
      <g transform="translate(20.200703 256.224607) scale(0.09 -0.09)">
       <defs>
        <path id="DejaVuSans-14" d="M 794 531 
L 1825 531 
L 1825 4091 
L 703 3866 
L 703 4441 
L 1819 4666 
L 2450 4666 
L 2450 531 
L 3481 531 
L 3481 0 
L 794 0 
L 794 531 
z
" transform="scale(0.015625)"/>
       </defs>
       <use xlink:href="#DejaVuSans-14"/>
       <use xlink:href="#DejaVuSans-11" transform="translate(63.625 0)"/>
       <use xlink:href="#DejaVuSans-13" transform="translate(95.40625 0)"/>
      </g>
     </g>
    </g>
    <g id="ytick_4">
     <g id="line2d_14">
      <path d="M 41.513516 198.702453 
L 922.591406 198.702453 
" clip-path="url(#p82086a799d)" style="fill: none; stroke: #b0b0b0; stroke-opacity: 0.2; stroke-width: 0.8; stroke-linecap: square"/>
     </g>
     <g id="line2d_15">
      <g>
       <use xlink:href="#m19ec3408cc" x="41.513516" y="198.702453" style="stroke: #000000; stroke-width: 0.8"/>
      </g>
     </g>
     <g id="text_11">
      <!-- 1.5 -->
      <g transform="translate(20.200703 202.121399) scale(0.09 -0.09)">
       <use xlink:href="#DejaVuSans-14"/>
       <use xlink:href="#DejaVuSans-11" transform="translate(63.625 0)"/>
       <use xlink:href="#DejaVuSans-18" transform="translate(95.40625 0)"/>
      </g>
     </g>
    </g>
    <g id="ytick_5">
     <g id="line2d_16">
      <path d="M 41.513516 144.599245 
L 922.591406 144.599245 
" clip-path="url(#p82086a799d)" style="fill: none; stroke: #b0b0b0; stroke-opacity: 0.2; stroke-width: 0.8; stroke-linecap: square"/>
     </g>
     <g id="line2d_17">
      <g>
       <use xlink:href="#m19ec3408cc" x="41.513516" y="144.599245" style="stroke: #000000; stroke-width: 0.8"/>
      </g>
     </g>
     <g id="text_12">
      <!-- 2.0 -->
      <g transform="translate(20.200703 148.01819) scale(0.09 -0.09)">
       <defs>
        <path id="DejaVuSans-15" d="M 1228 531 
L 3431 531 
L 3431 0 
L 469 0 
L 469 531 
Q 828 903 1448 1529 
Q 2069 2156 2228 2338 
Q 2531 2678 2651 2914 
Q 2772 3150 2772 3378 
Q 2772 3750 2511 3984 
Q 2250 4219 1831 4219 
Q 1534 4219 1204 4116 
Q 875 4013 500 3803 
L 500 4441 
Q 881 4594 1212 4672 
Q 1544 4750 1819 4750 
Q 2544 4750 2975 4387 
Q 3406 4025 3406 3419 
Q 3406 3131 3298 2873 
Q 3191 2616 2906 2266 
Q 2828 2175 2409 1742 
Q 1991 1309 1228 531 
z
" transform="scale(0.015625)"/>
       </defs>
       <use xlink:href="#DejaVuSans-15"/>
       <use xlink:href="#DejaVuSans-11" transform="translate(63.625 0)"/>
       <use xlink:href="#DejaVuSans-13" transform="translate(95.40625 0)"/>
      </g>
     </g>
    </g>
    <g id="ytick_6">
     <g id="line2d_18">
      <path d="M 41.513516 90.496037 
L 922.591406 90.496037 
" clip-path="url(#p82086a799d)" style="fill: none; stroke: #b0b0b0; stroke-opacity: 0.2; stroke-width: 0.8; stroke-linecap: square"/>
     </g>
     <g id="line2d_19">
      <g>
       <use xlink:href="#m19ec3408cc" x="41.513516" y="90.496037" style="stroke: #000000; stroke-width: 0.8"/>
      </g>
     </g>
     <g id="text_13">
      <!-- 2.5 -->
      <g transform="translate(20.200703 93.914982) scale(0.09 -0.09)">
       <use xlink:href="#DejaVuSans-15"/>
       <use xlink:href="#DejaVuSans-11" transform="translate(63.625 0)"/>
       <use xlink:href="#DejaVuSans-18" transform="translate(95.40625 0)"/>
      </g>
     </g>
    </g>
    <g id="ytick_7">
     <g id="line2d_20">
      <path d="M 41.513516 36.392828 
L 922.591406 36.392828 
" clip-path="url(#p82086a799d)" style="fill: none; stroke: #b0b0b0; stroke-opacity: 0.2; stroke-width: 0.8; stroke-linecap: square"/>
     </g>
     <g id="line2d_21">
      <g>
       <use xlink:href="#m19ec3408cc" x="41.513516" y="36.392828" style="stroke: #000000; stroke-width: 0.8"/>
      </g>
     </g>
     <g id="text_14">
      <!-- 3.0 -->
      <g transform="translate(20.200703 39.811774) scale(0.09 -0.09)">
       <use xlink:href="#DejaVuSans-16"/>
       <use xlink:href="#DejaVuSans-11" transform="translate(63.625 0)"/>
       <use xlink:href="#DejaVuSans-13" transform="translate(95.40625 0)"/>
      </g>
     </g>
    </g>
    <g id="text_15">
     <!-- Native level time / shared best measured time -->
     <g transform="translate(14.038594 302.91034) rotate(-90) scale(0.09 -0.09)">
      <defs>
       <path id="DejaVuSans-31" d="M 628 4666 
L 1478 4666 
L 3547 763 
L 3547 4666 
L 4159 4666 
L 4159 0 
L 3309 0 
L 1241 3903 
L 1241 0 
L 628 0 
L 628 4666 
z
" transform="scale(0.015625)"/>
       <path id="DejaVuSans-59" d="M 191 3500 
L 800 3500 
L 1894 563 
L 2988 3500 
L 3597 3500 
L 2284 0 
L 1503 0 
L 191 3500 
z
" transform="scale(0.015625)"/>
       <path id="DejaVuSans-12" d="M 1625 4666 
L 2156 4666 
L 531 -594 
L 0 -594 
L 1625 4666 
z
" transform="scale(0.015625)"/>
       <path id="DejaVuSans-45" d="M 3116 1747 
Q 3116 2381 2855 2742 
Q 2594 3103 2138 3103 
Q 1681 3103 1420 2742 
Q 1159 2381 1159 1747 
Q 1159 1113 1420 752 
Q 1681 391 2138 391 
Q 2594 391 2855 752 
Q 3116 1113 3116 1747 
z
M 1159 2969 
Q 1341 3281 1617 3432 
Q 1894 3584 2278 3584 
Q 2916 3584 3314 3078 
Q 3713 2572 3713 1747 
Q 3713 922 3314 415 
Q 2916 -91 2278 -91 
Q 1894 -91 1617 61 
Q 1341 213 1159 525 
L 1159 0 
L 581 0 
L 581 4863 
L 1159 4863 
L 1159 2969 
z
" transform="scale(0.015625)"/>
      </defs>
      <use xlink:href="#DejaVuSans-31"/>
      <use xlink:href="#DejaVuSans-44" transform="translate(74.8125 0)"/>
      <use xlink:href="#DejaVuSans-57" transform="translate(136.09375 0)"/>
      <use xlink:href="#DejaVuSans-4c" transform="translate(175.296875 0)"/>
      <use xlink:href="#DejaVuSans-59" transform="translate(203.078125 0)"/>
      <use xlink:href="#DejaVuSans-48" transform="translate(262.265625 0)"/>
      <use xlink:href="#DejaVuSans-3" transform="translate(323.796875 0)"/>
      <use xlink:href="#DejaVuSans-4f" transform="translate(355.578125 0)"/>
      <use xlink:href="#DejaVuSans-48" transform="translate(383.359375 0)"/>
      <use xlink:href="#DejaVuSans-59" transform="translate(444.890625 0)"/>
      <use xlink:href="#DejaVuSans-48" transform="translate(504.078125 0)"/>
      <use xlink:href="#DejaVuSans-4f" transform="translate(565.609375 0)"/>
      <use xlink:href="#DejaVuSans-3" transform="translate(593.390625 0)"/>
      <use xlink:href="#DejaVuSans-57" transform="translate(625.171875 0)"/>
      <use xlink:href="#DejaVuSans-4c" transform="translate(664.375 0)"/>
      <use xlink:href="#DejaVuSans-50" transform="translate(692.15625 0)"/>
      <use xlink:href="#DejaVuSans-48" transform="translate(789.5625 0)"/>
      <use xlink:href="#DejaVuSans-3" transform="translate(851.09375 0)"/>
      <use xlink:href="#DejaVuSans-12" transform="translate(882.875 0)"/>
      <use xlink:href="#DejaVuSans-3" transform="translate(916.5625 0)"/>
      <use xlink:href="#DejaVuSans-56" transform="translate(948.34375 0)"/>
      <use xlink:href="#DejaVuSans-4b" transform="translate(1000.4375 0)"/>
      <use xlink:href="#DejaVuSans-44" transform="translate(1063.8125 0)"/>
      <use xlink:href="#DejaVuSans-55" transform="translate(1125.09375 0)"/>
      <use xlink:href="#DejaVuSans-48" transform="translate(1164 0)"/>
      <use xlink:href="#DejaVuSans-47" transform="translate(1225.53125 0)"/>
      <use xlink:href="#DejaVuSans-3" transform="translate(1289.015625 0)"/>
      <use xlink:href="#DejaVuSans-45" transform="translate(1320.796875 0)"/>
      <use xlink:href="#DejaVuSans-48" transform="translate(1384.28125 0)"/>
      <use xlink:href="#DejaVuSans-56" transform="translate(1445.8125 0)"/>
      <use xlink:href="#DejaVuSans-57" transform="translate(1497.90625 0)"/>
      <use xlink:href="#DejaVuSans-3" transform="translate(1537.109375 0)"/>
      <use xlink:href="#DejaVuSans-50" transform="translate(1568.890625 0)"/>
      <use xlink:href="#DejaVuSans-48" transform="translate(1666.296875 0)"/>
      <use xlink:href="#DejaVuSans-44" transform="translate(1727.828125 0)"/>
      <use xlink:href="#DejaVuSans-56" transform="translate(1789.109375 0)"/>
      <use xlink:href="#DejaVuSans-58" transform="translate(1841.203125 0)"/>
      <use xlink:href="#DejaVuSans-55" transform="translate(1904.578125 0)"/>
      <use xlink:href="#DejaVuSans-48" transform="translate(1943.484375 0)"/>
      <use xlink:href="#DejaVuSans-47" transform="translate(2005.015625 0)"/>
      <use xlink:href="#DejaVuSans-3" transform="translate(2068.5 0)"/>
      <use xlink:href="#DejaVuSans-57" transform="translate(2100.28125 0)"/>
      <use xlink:href="#DejaVuSans-4c" transform="translate(2139.484375 0)"/>
      <use xlink:href="#DejaVuSans-50" transform="translate(2167.265625 0)"/>
      <use xlink:href="#DejaVuSans-48" transform="translate(2264.671875 0)"/>
     </g>
    </g>
   </g>
   <g id="line2d_22">
    <path d="M 41.513516 252.805662 
L 922.591406 252.805662 
" clip-path="url(#p82086a799d)" style="fill: none; stroke: #167343; stroke-width: 1.5; stroke-linecap: square"/>
   </g>
   <g id="patch_17">
    <path d="M 41.513516 361.012079 
L 41.513516 35.45032 
" style="fill: none; stroke: #000000; stroke-width: 0.8; stroke-linejoin: miter; stroke-linecap: square"/>
   </g>
   <g id="patch_18">
    <path d="M 922.591406 361.012079 
L 922.591406 35.45032 
" style="fill: none; stroke: #000000; stroke-width: 0.8; stroke-linejoin: miter; stroke-linecap: square"/>
   </g>
   <g id="patch_19">
    <path d="M 41.513516 361.012079 
L 922.591406 361.012079 
" style="fill: none; stroke: #000000; stroke-width: 0.8; stroke-linejoin: miter; stroke-linecap: square"/>
   </g>
   <g id="patch_20">
    <path d="M 41.513516 35.45032 
L 922.591406 35.45032 
" style="fill: none; stroke: #000000; stroke-width: 0.8; stroke-linejoin: miter; stroke-linecap: square"/>
   </g>
   <g id="text_16">
    <!-- Mixed levels with ordinary tasks and two loops -->
    <g transform="translate(355.957398 16.487367) scale(0.108 -0.108)">
     <defs>
      <path id="DejaVuSans-30" d="M 628 4666 
L 1569 4666 
L 2759 1491 
L 3956 4666 
L 4897 4666 
L 4897 0 
L 4281 0 
L 4281 4097 
L 3078 897 
L 2444 897 
L 1241 4097 
L 1241 0 
L 628 0 
L 628 4666 
z
" transform="scale(0.015625)"/>
      <path id="DejaVuSans-5b" d="M 3513 3500 
L 2247 1797 
L 3578 0 
L 2900 0 
L 1881 1375 
L 863 0 
L 184 0 
L 1544 1831 
L 300 3500 
L 978 3500 
L 1906 2253 
L 2834 3500 
L 3513 3500 
z
" transform="scale(0.015625)"/>
     </defs>
     <use xlink:href="#DejaVuSans-30"/>
     <use xlink:href="#DejaVuSans-4c" transform="translate(86.28125 0)"/>
     <use xlink:href="#DejaVuSans-5b" transform="translate(114.0625 0)"/>
     <use xlink:href="#DejaVuSans-48" transform="translate(170.171875 0)"/>
     <use xlink:href="#DejaVuSans-47" transform="translate(231.703125 0)"/>
     <use xlink:href="#DejaVuSans-3" transform="translate(295.1875 0)"/>
     <use xlink:href="#DejaVuSans-4f" transform="translate(326.96875 0)"/>
     <use xlink:href="#DejaVuSans-48" transform="translate(354.75 0)"/>
     <use xlink:href="#DejaVuSans-59" transform="translate(416.28125 0)"/>
     <use xlink:href="#DejaVuSans-48" transform="translate(475.46875 0)"/>
     <use xlink:href="#DejaVuSans-4f" transform="translate(537 0)"/>
     <use xlink:href="#DejaVuSans-56" transform="translate(564.78125 0)"/>
     <use xlink:href="#DejaVuSans-3" transform="translate(616.875 0)"/>
     <use xlink:href="#DejaVuSans-5a" transform="translate(648.65625 0)"/>
     <use xlink:href="#DejaVuSans-4c" transform="translate(730.4375 0)"/>
     <use xlink:href="#DejaVuSans-57" transform="translate(758.21875 0)"/>
     <use xlink:href="#DejaVuSans-4b" transform="translate(797.421875 0)"/>
     <use xlink:href="#DejaVuSans-3" transform="translate(860.796875 0)"/>
     <use xlink:href="#DejaVuSans-52" transform="translate(892.578125 0)"/>
     <use xlink:href="#DejaVuSans-55" transform="translate(953.765625 0)"/>
     <use xlink:href="#DejaVuSans-47" transform="translate(993.125 0)"/>
     <use xlink:href="#DejaVuSans-4c" transform="translate(1056.609375 0)"/>
     <use xlink:href="#DejaVuSans-51" transform="translate(1084.390625 0)"/>
     <use xlink:href="#DejaVuSans-44" transform="translate(1147.765625 0)"/>
     <use xlink:href="#DejaVuSans-55" transform="translate(1209.046875 0)"/>
     <use xlink:href="#DejaVuSans-5c" transform="translate(1250.15625 0)"/>
     <use xlink:href="#DejaVuSans-3" transform="translate(1309.34375 0)"/>
     <use xlink:href="#DejaVuSans-57" transform="translate(1341.125 0)"/>
     <use xlink:href="#DejaVuSans-44" transform="translate(1380.328125 0)"/>
     <use xlink:href="#DejaVuSans-56" transform="translate(1441.609375 0)"/>
     <use xlink:href="#DejaVuSans-4e" transform="translate(1493.703125 0)"/>
     <use xlink:href="#DejaVuSans-56" transform="translate(1551.609375 0)"/>
     <use xlink:href="#DejaVuSans-3" transform="translate(1603.703125 0)"/>
     <use xlink:href="#DejaVuSans-44" transform="translate(1635.484375 0)"/>
     <use xlink:href="#DejaVuSans-51" transform="translate(1696.765625 0)"/>
     <use xlink:href="#DejaVuSans-47" transform="translate(1760.140625 0)"/>
     <use xlink:href="#DejaVuSans-3" transform="translate(1823.625 0)"/>
     <use xlink:href="#DejaVuSans-57" transform="translate(1855.40625 0)"/>
     <use xlink:href="#DejaVuSans-5a" transform="translate(1894.609375 0)"/>
     <use xlink:href="#DejaVuSans-52" transform="translate(1976.390625 0)"/>
     <use xlink:href="#DejaVuSans-3" transform="translate(2037.578125 0)"/>
     <use xlink:href="#DejaVuSans-4f" transform="translate(2069.359375 0)"/>
     <use xlink:href="#DejaVuSans-52" transform="translate(2097.140625 0)"/>
     <use xlink:href="#DejaVuSans-52" transform="translate(2158.328125 0)"/>
     <use xlink:href="#DejaVuSans-53" transform="translate(2219.515625 0)"/>
     <use xlink:href="#DejaVuSans-56" transform="translate(2283 0)"/>
    </g>
    <!-- * More callbacks than available threads; includes planning and dispatch -->
    <g transform="translate(287.659211 29.45032) scale(0.108 -0.108)">
     <defs>
      <path id="DejaVuSans-1e" d="M 750 3309 
L 1409 3309 
L 1409 2516 
L 750 2516 
L 750 3309 
z
M 750 794 
L 1409 794 
L 1409 256 
L 897 -744 
L 494 -744 
L 750 256 
L 750 794 
z
" transform="scale(0.015625)"/>
     </defs>
     <use xlink:href="#DejaVuSans-d"/>
     <use xlink:href="#DejaVuSans-3" transform="translate(50 0)"/>
     <use xlink:href="#DejaVuSans-30" transform="translate(81.78125 0)"/>
     <use xlink:href="#DejaVuSans-52" transform="translate(168.0625 0)"/>
     <use xlink:href="#DejaVuSans-55" transform="translate(229.25 0)"/>
     <use xlink:href="#DejaVuSans-48" transform="translate(268.15625 0)"/>
     <use xlink:href="#DejaVuSans-3" transform="translate(329.6875 0)"/>
     <use xlink:href="#DejaVuSans-46" transform="translate(361.46875 0)"/>
     <use xlink:href="#DejaVuSans-44" transform="translate(416.453125 0)"/>
     <use xlink:href="#DejaVuSans-4f" transform="translate(477.734375 0)"/>
     <use xlink:href="#DejaVuSans-4f" transform="translate(505.515625 0)"/>
     <use xlink:href="#DejaVuSans-45" transform="translate(533.296875 0)"/>
     <use xlink:href="#DejaVuSans-44" transform="translate(596.78125 0)"/>
     <use xlink:href="#DejaVuSans-46" transform="translate(658.0625 0)"/>
     <use xlink:href="#DejaVuSans-4e" transform="translate(713.046875 0)"/>
     <use xlink:href="#DejaVuSans-56" transform="translate(770.953125 0)"/>
     <use xlink:href="#DejaVuSans-3" transform="translate(823.046875 0)"/>
     <use xlink:href="#DejaVuSans-57" transform="translate(854.828125 0)"/>
     <use xlink:href="#DejaVuSans-4b" transform="translate(894.03125 0)"/>
     <use xlink:href="#DejaVuSans-44" transform="translate(957.40625 0)"/>
     <use xlink:href="#DejaVuSans-51" transform="translate(1018.6875 0)"/>
     <use xlink:href="#DejaVuSans-3" transform="translate(1082.0625 0)"/>
     <use xlink:href="#DejaVuSans-44" transform="translate(1113.84375 0)"/>
     <use xlink:href="#DejaVuSans-59" transform="translate(1175.125 0)"/>
     <use xlink:href="#DejaVuSans-44" transform="translate(1234.3125 0)"/>
     <use xlink:href="#DejaVuSans-4c" transform="translate(1295.59375 0)"/>
     <use xlink:href="#DejaVuSans-4f" transform="translate(1323.375 0)"/>
     <use xlink:href="#DejaVuSans-44" transform="translate(1351.15625 0)"/>
     <use xlink:href="#DejaVuSans-45" transform="translate(1412.4375 0)"/>
     <use xlink:href="#DejaVuSans-4f" transform="translate(1475.921875 0)"/>
     <use xlink:href="#DejaVuSans-48" transform="translate(1503.703125 0)"/>
     <use xlink:href="#DejaVuSans-3" transform="translate(1565.234375 0)"/>
     <use xlink:href="#DejaVuSans-57" transform="translate(1597.015625 0)"/>
     <use xlink:href="#DejaVuSans-4b" transform="translate(1636.21875 0)"/>
     <use xlink:href="#DejaVuSans-55" transform="translate(1699.59375 0)"/>
     <use xlink:href="#DejaVuSans-48" transform="translate(1738.5 0)"/>
     <use xlink:href="#DejaVuSans-44" transform="translate(1800.03125 0)"/>
     <use xlink:href="#DejaVuSans-47" transform="translate(1861.3125 0)"/>
     <use xlink:href="#DejaVuSans-56" transform="translate(1924.796875 0)"/>
     <use xlink:href="#DejaVuSans-1e" transform="translate(1976.890625 0)"/>
     <use xlink:href="#DejaVuSans-3" transform="translate(2010.578125 0)"/>
     <use xlink:href="#DejaVuSans-4c" transform="translate(2042.359375 0)"/>
     <use xlink:href="#DejaVuSans-51" transform="translate(2070.140625 0)"/>
     <use xlink:href="#DejaVuSans-46" transform="translate(2133.515625 0)"/>
     <use xlink:href="#DejaVuSans-4f" transform="translate(2188.5 0)"/>
     <use xlink:href="#DejaVuSans-58" transform="translate(2216.28125 0)"/>
     <use xlink:href="#DejaVuSans-47" transform="translate(2279.65625 0)"/>
     <use xlink:href="#DejaVuSans-48" transform="translate(2343.140625 0)"/>
     <use xlink:href="#DejaVuSans-56" transform="translate(2404.671875 0)"/>
     <use xlink:href="#DejaVuSans-3" transform="translate(2456.765625 0)"/>
     <use xlink:href="#DejaVuSans-53" transform="translate(2488.546875 0)"/>
     <use xlink:href="#DejaVuSans-4f" transform="translate(2552.03125 0)"/>
     <use xlink:href="#DejaVuSans-44" transform="translate(2579.8125 0)"/>
     <use xlink:href="#DejaVuSans-51" transform="translate(2641.09375 0)"/>
     <use xlink:href="#DejaVuSans-51" transform="translate(2704.46875 0)"/>
     <use xlink:href="#DejaVuSans-4c" transform="translate(2767.84375 0)"/>
     <use xlink:href="#DejaVuSans-51" transform="translate(2795.625 0)"/>
     <use xlink:href="#DejaVuSans-4a" transform="translate(2859 0)"/>
     <use xlink:href="#DejaVuSans-3" transform="translate(2922.484375 0)"/>
     <use xlink:href="#DejaVuSans-44" transform="translate(2954.265625 0)"/>
     <use xlink:href="#DejaVuSans-51" transform="translate(3015.546875 0)"/>
     <use xlink:href="#DejaVuSans-47" transform="translate(3078.921875 0)"/>
     <use xlink:href="#DejaVuSans-3" transform="translate(3142.40625 0)"/>
     <use xlink:href="#DejaVuSans-47" transform="translate(3174.1875 0)"/>
     <use xlink:href="#DejaVuSans-4c" transform="translate(3237.671875 0)"/>
     <use xlink:href="#DejaVuSans-56" transform="translate(3265.453125 0)"/>
     <use xlink:href="#DejaVuSans-53" transform="translate(3317.546875 0)"/>
     <use xlink:href="#DejaVuSans-44" transform="translate(3381.03125 0)"/>
     <use xlink:href="#DejaVuSans-57" transform="translate(3442.3125 0)"/>
     <use xlink:href="#DejaVuSans-46" transform="translate(3481.515625 0)"/>
     <use xlink:href="#DejaVuSans-4b" transform="translate(3536.5 0)"/>
    </g>
   </g>
   <g id="legend_1">
    <g id="patch_21">
     <path d="M 739.2375 83.15243 
L 916.291406 83.15243 
Q 918.091406 83.15243 918.091406 81.35243 
L 918.091406 41.75032 
Q 918.091406 39.95032 916.291406 39.95032 
L 739.2375 39.95032 
Q 737.4375 39.95032 737.4375 41.75032 
L 737.4375 81.35243 
Q 737.4375 83.15243 739.2375 83.15243 
z
" style="fill: #ffffff; opacity: 0.8; stroke: #cccccc; stroke-linejoin: miter"/>
    </g>
    <g id="line2d_23">
     <path d="M 741.0375 47.238914 
L 750.0375 47.238914 
L 759.0375 47.238914 
" style="fill: none; stroke: #167343; stroke-width: 1.5; stroke-linecap: square"/>
    </g>
    <g id="text_17">
     <!-- Shared best measured schedule -->
     <g transform="translate(766.2375 50.388914) scale(0.09 -0.09)">
      <defs>
       <path id="DejaVuSans-36" d="M 3425 4513 
L 3425 3897 
Q 3066 4069 2747 4153 
Q 2428 4238 2131 4238 
Q 1616 4238 1336 4038 
Q 1056 3838 1056 3469 
Q 1056 3159 1242 3001 
Q 1428 2844 1947 2747 
L 2328 2669 
Q 3034 2534 3370 2195 
Q 3706 1856 3706 1288 
Q 3706 609 3251 259 
Q 2797 -91 1919 -91 
Q 1588 -91 1214 -16 
Q 841 59 441 206 
L 441 856 
Q 825 641 1194 531 
Q 1563 422 1919 422 
Q 2459 422 2753 634 
Q 3047 847 3047 1241 
Q 3047 1584 2836 1778 
Q 2625 1972 2144 2069 
L 1759 2144 
Q 1053 2284 737 2584 
Q 422 2884 422 3419 
Q 422 4038 858 4394 
Q 1294 4750 2059 4750 
Q 2388 4750 2728 4690 
Q 3069 4631 3425 4513 
z
" transform="scale(0.015625)"/>
      </defs>
      <use xlink:href="#DejaVuSans-36"/>
      <use xlink:href="#DejaVuSans-4b" transform="translate(63.484375 0)"/>
      <use xlink:href="#DejaVuSans-44" transform="translate(126.859375 0)"/>
      <use xlink:href="#DejaVuSans-55" transform="translate(188.140625 0)"/>
      <use xlink:href="#DejaVuSans-48" transform="translate(227.046875 0)"/>
      <use xlink:href="#DejaVuSans-47" transform="translate(288.578125 0)"/>
      <use xlink:href="#DejaVuSans-3" transform="translate(352.0625 0)"/>
      <use xlink:href="#DejaVuSans-45" transform="translate(383.84375 0)"/>
      <use xlink:href="#DejaVuSans-48" transform="translate(447.328125 0)"/>
      <use xlink:href="#DejaVuSans-56" transform="translate(508.859375 0)"/>
      <use xlink:href="#DejaVuSans-57" transform="translate(560.953125 0)"/>
      <use xlink:href="#DejaVuSans-3" transform="translate(600.15625 0)"/>
      <use xlink:href="#DejaVuSans-50" transform="translate(631.9375 0)"/>
      <use xlink:href="#DejaVuSans-48" transform="translate(729.34375 0)"/>
      <use xlink:href="#DejaVuSans-44" transform="translate(790.875 0)"/>
      <use xlink:href="#DejaVuSans-56" transform="translate(852.15625 0)"/>
      <use xlink:href="#DejaVuSans-58" transform="translate(904.25 0)"/>
      <use xlink:href="#DejaVuSans-55" transform="translate(967.625 0)"/>
      <use xlink:href="#DejaVuSans-48" transform="translate(1006.53125 0)"/>
      <use xlink:href="#DejaVuSans-47" transform="translate(1068.0625 0)"/>
      <use xlink:href="#DejaVuSans-3" transform="translate(1131.546875 0)"/>
      <use xlink:href="#DejaVuSans-56" transform="translate(1163.328125 0)"/>
      <use xlink:href="#DejaVuSans-46" transform="translate(1215.421875 0)"/>
      <use xlink:href="#DejaVuSans-4b" transform="translate(1270.40625 0)"/>
      <use xlink:href="#DejaVuSans-48" transform="translate(1333.78125 0)"/>
      <use xlink:href="#DejaVuSans-47" transform="translate(1395.3125 0)"/>
      <use xlink:href="#DejaVuSans-58" transform="translate(1458.796875 0)"/>
      <use xlink:href="#DejaVuSans-4f" transform="translate(1522.171875 0)"/>
      <use xlink:href="#DejaVuSans-48" transform="translate(1549.953125 0)"/>
     </g>
    </g>
    <g id="patch_22">
     <path d="M 741.0375 63.889617 
L 759.0375 63.889617 
L 759.0375 57.589617 
L 741.0375 57.589617 
z
" style="fill: #5885ad"/>
    </g>
    <g id="text_18">
     <!-- Ordinary-first -->
     <g transform="translate(766.2375 63.889617) scale(0.09 -0.09)">
      <defs>
       <path id="DejaVuSans-10" d="M 313 2009 
L 1997 2009 
L 1997 1497 
L 313 1497 
L 313 2009 
z
" transform="scale(0.015625)"/>
       <path id="DejaVuSans-13af" d="M 3431 3500 
L 3431 0 
L 2853 0 
L 2853 3053 
L 1275 3053 
L 1275 0 
L 697 0 
L 697 3053 
L 147 3053 
L 147 3500 
L 697 3500 
L 697 3744 
Q 697 4316 967 4589 
Q 1238 4863 1797 4863 
L 2375 4863 
L 2375 4384 
L 1825 4384 
Q 1516 4384 1395 4259 
Q 1275 4134 1275 3809 
L 1275 3500 
L 3431 3500 
z
M 2853 4856 
L 3431 4856 
L 3431 4128 
L 2853 4128 
L 2853 4856 
z
" transform="scale(0.015625)"/>
      </defs>
      <use xlink:href="#DejaVuSans-32"/>
      <use xlink:href="#DejaVuSans-55" transform="translate(78.71875 0)"/>
      <use xlink:href="#DejaVuSans-47" transform="translate(118.078125 0)"/>
      <use xlink:href="#DejaVuSans-4c" transform="translate(181.5625 0)"/>
      <use xlink:href="#DejaVuSans-51" transform="translate(209.34375 0)"/>
      <use xlink:href="#DejaVuSans-44" transform="translate(272.71875 0)"/>
      <use xlink:href="#DejaVuSans-55" transform="translate(334 0)"/>
      <use xlink:href="#DejaVuSans-5c" transform="translate(375.109375 0)"/>
      <use xlink:href="#DejaVuSans-10" transform="translate(432.546875 0)"/>
      <use xlink:href="#DejaVuSans-13af" transform="translate(468.625 0)"/>
      <use xlink:href="#DejaVuSans-55" transform="translate(531.609375 0)"/>
      <use xlink:href="#DejaVuSans-56" transform="translate(572.71875 0)"/>
      <use xlink:href="#DejaVuSans-57" transform="translate(624.8125 0)"/>
     </g>
    </g>
    <g id="patch_23">
     <path d="M 741.0375 77.39032 
L 759.0375 77.39032 
L 759.0375 71.09032 
L 741.0375 71.09032 
z
" style="fill: #e89e32"/>
    </g>
    <g id="text_19">
     <!-- Dynamic allocation + scheduling -->
     <g transform="translate(766.2375 77.39032) scale(0.09 -0.09)">
      <defs>
       <path id="DejaVuSans-27" d="M 1259 4147 
L 1259 519 
L 2022 519 
Q 2988 519 3436 956 
Q 3884 1394 3884 2338 
Q 3884 3275 3436 3711 
Q 2988 4147 2022 4147 
L 1259 4147 
z
M 628 4666 
L 1925 4666 
Q 3281 4666 3915 4102 
Q 4550 3538 4550 2338 
Q 4550 1131 3912 565 
Q 3275 0 1925 0 
L 628 0 
L 628 4666 
z
" transform="scale(0.015625)"/>
       <path id="DejaVuSans-e" d="M 2944 4013 
L 2944 2272 
L 4684 2272 
L 4684 1741 
L 2944 1741 
L 2944 0 
L 2419 0 
L 2419 1741 
L 678 1741 
L 678 2272 
L 2419 2272 
L 2419 4013 
L 2944 4013 
z
" transform="scale(0.015625)"/>
      </defs>
      <use xlink:href="#DejaVuSans-27"/>
      <use xlink:href="#DejaVuSans-5c" transform="translate(77 0)"/>
      <use xlink:href="#DejaVuSans-51" transform="translate(136.1875 0)"/>
      <use xlink:href="#DejaVuSans-44" transform="translate(199.5625 0)"/>
      <use xlink:href="#DejaVuSans-50" transform="translate(260.84375 0)"/>
      <use xlink:href="#DejaVuSans-4c" transform="translate(358.25 0)"/>
      <use xlink:href="#DejaVuSans-46" transform="translate(386.03125 0)"/>
      <use xlink:href="#DejaVuSans-3" transform="translate(441.015625 0)"/>
      <use xlink:href="#DejaVuSans-44" transform="translate(472.796875 0)"/>
      <use xlink:href="#DejaVuSans-4f" transform="translate(534.078125 0)"/>
      <use xlink:href="#DejaVuSans-4f" transform="translate(561.859375 0)"/>
      <use xlink:href="#DejaVuSans-52" transform="translate(589.640625 0)"/>
      <use xlink:href="#DejaVuSans-46" transform="translate(650.828125 0)"/>
      <use xlink:href="#DejaVuSans-44" transform="translate(705.8125 0)"/>
      <use xlink:href="#DejaVuSans-57" transform="translate(767.09375 0)"/>
      <use xlink:href="#DejaVuSans-4c" transform="translate(806.296875 0)"/>
      <use xlink:href="#DejaVuSans-52" transform="translate(834.078125 0)"/>
      <use xlink:href="#DejaVuSans-51" transform="translate(895.265625 0)"/>
      <use xlink:href="#DejaVuSans-3" transform="translate(958.640625 0)"/>
      <use xlink:href="#DejaVuSans-e" transform="translate(990.421875 0)"/>
      <use xlink:href="#DejaVuSans-3" transform="translate(1074.21875 0)"/>
      <use xlink:href="#DejaVuSans-56" transform="translate(1106 0)"/>
      <use xlink:href="#DejaVuSans-46" transform="translate(1158.09375 0)"/>
      <use xlink:href="#DejaVuSans-4b" transform="translate(1213.078125 0)"/>
      <use xlink:href="#DejaVuSans-48" transform="translate(1276.453125 0)"/>
      <use xlink:href="#DejaVuSans-47" transform="translate(1337.984375 0)"/>
      <use xlink:href="#DejaVuSans-58" transform="translate(1401.46875 0)"/>
      <use xlink:href="#DejaVuSans-4f" transform="translate(1464.84375 0)"/>
      <use xlink:href="#DejaVuSans-4c" transform="translate(1492.625 0)"/>
      <use xlink:href="#DejaVuSans-51" transform="translate(1520.40625 0)"/>
      <use xlink:href="#DejaVuSans-4a" transform="translate(1583.78125 0)"/>
     </g>
    </g>
   </g>
  </g>
 </g>
 <defs>
  <clipPath id="p82086a799d">
   <rect x="41.513516" y="35.45032" width="881.077891" height="325.561758"/>
  </clipPath>
 </defs>
</svg>
