<svg xmlns="http://www.w3.org/2000/svg" width="1100" height="970" viewBox="0 0 1100 970">
<style>text{font:12px system-ui;fill:#26303b}.title{font-size:17px;font-weight:600}.value{font-size:15px;font-weight:600}.grid{stroke:#d8dde5;stroke-width:1}</style>
<text x="25" y="28" class="title">SGPL vs Graptor BFS · complete process time</text>
<text x="25" y="52">2M vertices, 8M undirected input edges, source 0; warm-up + median of 7 alternating launches</text>
<g transform="translate(70,70)"><g transform="translate(0,0)"><svg width="920" height="390" viewBox="0 0 920 390"><text x="72" y="25" class="title">End-to-end BFS wall time</text><line x1="72" y1="332.0" x2="896" y2="332.0" class="grid"/><text x="64" y="336.0" text-anchor="end">572.25</text><line x1="72" y1="260.25" x2="896" y2="260.25" class="grid"/><text x="64" y="264.25" text-anchor="end">810.08</text><line x1="72" y1="188.5" x2="896" y2="188.5" class="grid"/><text x="64" y="192.5" text-anchor="end">1047.92</text><line x1="72" y1="116.75" x2="896" y2="116.75" class="grid"/><text x="64" y="120.75" text-anchor="end">1285.75</text><line x1="72" y1="45.0" x2="896" y2="45.0" class="grid"/><text x="64" y="49.0" text-anchor="end">1523.59</text><text x="72.0" y="360" text-anchor="middle">1</text><text x="163.55555555555554" y="360" text-anchor="middle">2</text><text x="255.11111111111111" y="360" text-anchor="middle">3</text><text x="346.6666666666667" y="360" text-anchor="middle">4</text><text x="438.22222222222223" y="360" text-anchor="middle">5</text><text x="529.7777777777778" y="360" text-anchor="middle">6</text><text x="621.3333333333334" y="360" text-anchor="middle">7</text><text x="712.8888888888889" y="360" text-anchor="middle">8</text><text x="804.4444444444445" y="360" text-anchor="middle">9</text><text x="896.0" y="360" text-anchor="middle">10</text><text x="15" y="188.5" transform="rotate(-90 15 188.5)" text-anchor="middle">Median wall time (ms)</text><polyline points="72.0,106.13375432250928 163.55555555555554,90.29589419765237 255.11111111111111,68.91666666666667 346.6666666666667,104.74755199798398 438.22222222222223,76.19737975802184 529.7777777777778,95.91171824767291 621.3333333333334,102.32289515817155 712.8888888888889,96.90919817262338 804.4444444444445,76.939535128837 896.0,104.06926547938674" fill="none" stroke="#3478d4" stroke-width="3"/><circle cx="72.0" cy="106.13375432250928" r="4" fill="#3478d4"/><circle cx="163.55555555555554" cy="90.29589419765237" r="4" fill="#3478d4"/><circle cx="255.11111111111111" cy="68.91666666666667" r="4" fill="#3478d4"/><circle cx="346.6666666666667" cy="104.74755199798398" r="4" fill="#3478d4"/><circle cx="438.22222222222223" cy="76.19737975802184" r="4" fill="#3478d4"/><circle cx="529.7777777777778" cy="95.91171824767291" r="4" fill="#3478d4"/><circle cx="621.3333333333334" cy="102.32289515817155" r="4" fill="#3478d4"/><circle cx="712.8888888888889" cy="96.90919817262338" r="4" fill="#3478d4"/><circle cx="804.4444444444445" cy="76.939535128837" r="4" fill="#3478d4"/><circle cx="896.0" cy="104.06926547938674" r="4" fill="#3478d4"/><text x="72" y="382" fill="#3478d4">SGPL</text><polyline points="72.0,221.16713005168313 163.55555555555554,217.567908442332 255.11111111111111,270.2981269685106 346.6666666666667,291.7861200927616 438.22222222222223,262.81666971727554 529.7777777777778,291.2349139105275 621.3333333333334,298.4695286602547 712.8888888888889,295.94313538709577 804.4444444444445,291.4341532853025 896.0,308.0833333333333" fill="none" stroke="#238b57" stroke-width="3"/><circle cx="72.0" cy="221.16713005168313" r="4" fill="#238b57"/><circle cx="163.55555555555554" cy="217.567908442332" r="4" fill="#238b57"/><circle cx="255.11111111111111" cy="270.2981269685106" r="4" fill="#238b57"/><circle cx="346.6666666666667" cy="291.7861200927616" r="4" fill="#238b57"/><circle cx="438.22222222222223" cy="262.81666971727554" r="4" fill="#238b57"/><circle cx="529.7777777777778" cy="291.2349139105275" r="4" fill="#238b57"/><circle cx="621.3333333333334" cy="298.4695286602547" r="4" fill="#238b57"/><circle cx="712.8888888888889" cy="295.94313538709577" r="4" fill="#238b57"/><circle cx="804.4444444444445" cy="291.4341532853025" r="4" fill="#238b57"/><circle cx="896.0" cy="308.0833333333333" r="4" fill="#238b57"/><text x="332" y="382" fill="#238b57">Graptor</text></svg></g><g transform="translate(0,430)"><svg width="920" height="390" viewBox="0 0 920 390"><text x="72" y="25" class="title">End-to-end thread scalability</text><line x1="72" y1="332.0" x2="896" y2="332.0" class="grid"/><text x="64" y="336.0" text-anchor="end">0.00</text><line x1="72" y1="260.25" x2="896" y2="260.25" class="grid"/><text x="64" y="264.25" text-anchor="end">0.61</text><line x1="72" y1="188.5" x2="896" y2="188.5" class="grid"/><text x="64" y="192.5" text-anchor="end">1.22</text><line x1="72" y1="116.75" x2="896" y2="116.75" class="grid"/><text x="64" y="120.75" text-anchor="end">1.83</text><line x1="72" y1="45.0" x2="896" y2="45.0" class="grid"/><text x="64" y="49.0" text-anchor="end">2.44</text><text x="72.0" y="360" text-anchor="middle">1</text><text x="163.55555555555554" y="360" text-anchor="middle">2</text><text x="255.11111111111111" y="360" text-anchor="middle">3</text><text x="346.6666666666667" y="360" text-anchor="middle">4</text><text x="438.22222222222223" y="360" text-anchor="middle">5</text><text x="529.7777777777778" y="360" text-anchor="middle">6</text><text x="621.3333333333334" y="360" text-anchor="middle">7</text><text x="712.8888888888889" y="360" text-anchor="middle">8</text><text x="804.4444444444445" y="360" text-anchor="middle">9</text><text x="896.0" y="360" text-anchor="middle">10</text><text x="15" y="188.5" transform="rotate(-90 15 188.5)" text-anchor="middle">Speedup relative to 1 thread</text><polyline points="72.0,214.48308933671916 163.55555555555554,218.9750840545475 255.11111111111111,224.52081434459816 346.6666666666667,214.89045783959986 438.22222222222223,222.69435910055904 529.7777777777778,217.4221372581113 621.3333333333334,215.5962514238614 712.8888888888889,217.14182960842197 804.4444444444445,222.5046880236159 896.0,215.08876112345197" fill="none" stroke="#3478d4" stroke-width="3"/><circle cx="72.0" cy="214.48308933671916" r="4" fill="#3478d4"/><circle cx="163.55555555555554" cy="218.9750840545475" r="4" fill="#3478d4"/><circle cx="255.11111111111111" cy="224.52081434459816" r="4" fill="#3478d4"/><circle cx="346.6666666666667" cy="214.89045783959986" r="4" fill="#3478d4"/><circle cx="438.22222222222223" cy="222.69435910055904" r="4" fill="#3478d4"/><circle cx="529.7777777777778" cy="217.4221372581113" r="4" fill="#3478d4"/><circle cx="621.3333333333334" cy="215.5962514238614" r="4" fill="#3478d4"/><circle cx="712.8888888888889" cy="217.14182960842197" r="4" fill="#3478d4"/><circle cx="804.4444444444445" cy="222.5046880236159" r="4" fill="#3478d4"/><circle cx="896.0" cy="215.08876112345197" r="4" fill="#3478d4"/><text x="72" y="382" fill="#3478d4">SGPL speedup</text><polyline points="72.0,214.48308933671916 163.55555555555554,215.9564975265174 255.11111111111111,189.8447011998344 346.6666666666667,175.4936334255732 438.22222222222223,194.24272025878307 529.7777777777778,175.89788170756904 621.3333333333334,170.42009847230176 712.8888888888889,172.37614592099857 804.4444444444445,175.75200306191118 896.0,162.51691066328084" fill="none" stroke="#238b57" stroke-width="3"/><circle cx="72.0" cy="214.48308933671916" r="4" fill="#238b57"/><circle cx="163.55555555555554" cy="215.9564975265174" r="4" fill="#238b57"/><circle cx="255.11111111111111" cy="189.8447011998344" r="4" fill="#238b57"/><circle cx="346.6666666666667" cy="175.4936334255732" r="4" fill="#238b57"/><circle cx="438.22222222222223" cy="194.24272025878307" r="4" fill="#238b57"/><circle cx="529.7777777777778" cy="175.89788170756904" r="4" fill="#238b57"/><circle cx="621.3333333333334" cy="170.42009847230176" r="4" fill="#238b57"/><circle cx="712.8888888888889" cy="172.37614592099857" r="4" fill="#238b57"/><circle cx="804.4444444444445" cy="175.75200306191118" r="4" fill="#238b57"/><circle cx="896.0" cy="162.51691066328084" r="4" fill="#238b57"/><text x="332" y="382" fill="#238b57">Graptor speedup</text></svg></g></g>
</svg>